# xmcd
#
# Track frame offsets: 
#        150
#        15244
#        33506
#        44510
#        58497
#        71894
#        94865
#        106231
#        116958
#        131701
#        148810
#        158916
#        168362
#        183446
#        201111
#        212001
#        226118
#        239893
#        263055
#        274580
#        285339
#        300074
#        317349
#        328037
#        337137
#
# Disc length: 4557 seconds
#
# Revision: 0
# Processed by: cddbd v1.5.2PL0 Copyright (c) Steve Scherf et al.
# Submitted via: ExactAudioCopy v0.95b3
#
DISCID=7411cb19
DTITLE=The Monkees - The Monkees Complete 14 of 28  
DYEAR=1900
DGENRE=
TTITLE0=Dream World
TTITLE1=Auntie's Municipal Court
TTITLE2=We Were Made For Each Other
TTITLE3=Tapioca Tundra
TTITLE4=Daydream Believer
TTITLE5=Writing Wrongs
TTITLE6=I'll Be Back Up On My Feet
TTITLE7=The Poster
TTITLE8=P.O. Box 9847
TTITLE9=Magnolia Simms
TTITLE10=Valleri
TTITLE11=Zor And Zam
TTITLE12=Dream World (mono)
TTITLE13=Auntie's Municipal Court (mono)
TTITLE14=We Were Made For Each Other (mono)
TTITLE15=Tapioca Tundra (mono)
TTITLE16=Daydream Believer (mono)
TTITLE17=Writing Wrongs (mono)
TTITLE18=I'll Be Back Up On My Feet (mono)
TTITLE19=The Poster (mono)
TTITLE20=P.O. Box 9847 (mono)
TTITLE21=Magnolia Simms (mono)
TTITLE22=Valleri (mono)
TTITLE23=Zor And Zam (mono)
TTITLE24=The Birds, The Bees and The Monkees Radio Spot
EXTD=
EXTT0=
EXTT1=
EXTT2=
EXTT3=
EXTT4=
EXTT5=
EXTT6=
EXTT7=
EXTT8=
EXTT9=
EXTT10=
EXTT11=
EXTT12=
EXTT13=
EXTT14=
EXTT15=
EXTT16=
EXTT17=
EXTT18=
EXTT19=
EXTT20=
EXTT21=
EXTT22=
EXTT23=
EXTT24=
PLAYORDER=
